<svg width="120" height="120" viewBox="0 0 120 120" xmlns="http://www.w3.org/2000/svg">
  <defs>
    <linearGradient id="face5" x1="0%" y1="0%" x2="100%" y2="100%">
      <stop offset="0%" style="stop-color:#d4a574;stop-opacity:1" />
      <stop offset="100%" style="stop-color:#c19660;stop-opacity:1" />
    </linearGradient>
  </defs>
  
  <!-- Face -->
  <circle cx="60" cy="60" r="50" fill="url(#face5)"/>
  
  <!-- Hair -->
  <path d="M 25 40 Q 35 10 60 15 Q 85 10 95 40 Q 90 20 80 25 Q 70 20 60 25 Q 50 20 40 25 Q 30 20 25 40" fill="#A0522D"/>
  
  <!-- Hair texture -->
  <path d="M 30 30 Q 40 25 50 30" stroke="#A0522D" stroke-width="1" fill="none"/>
  <path d="M 55 27 Q 65 22 75 27" stroke="#A0522D" stroke-width="1" fill="none"/>
  <path d="M 80 30 Q 85 25 90 30" stroke="#A0522D" stroke-width="1" fill="none"/>
  
  <!-- Eyes -->
  <ellipse cx="45" cy="50" rx="8" ry="6" fill="white"/>
  <ellipse cx="75" cy="50" rx="8" ry="6" fill="white"/>
  <circle cx="45" cy="50" r="4" fill="#8B4513"/>
  <circle cx="75" cy="50" r="4" fill="#8B4513"/>
  <circle cx="46" cy="49" r="1.5" fill="white"/>
  <circle cx="76" cy="49" r="1.5" fill="white"/>
  
  <!-- Eyebrows -->
  <path d="M 37 42 Q 45 40 53 42" stroke="#A0522D" stroke-width="2" fill="none"/>
  <path d="M 67 42 Q 75 40 83 42" stroke="#A0522D" stroke-width="2" fill="none"/>
  
  <!-- Nose -->
  <ellipse cx="60" cy="60" rx="4" ry="6" fill="#c19660"/>
  
  <!-- Mouth -->
  <path d="M 52 72 Q 60 78 68 72" stroke="#333" stroke-width="2" fill="none"/>
  
  <!-- Cheeks -->
  <circle cx="40" cy="65" r="8" fill="#f4c2c2" opacity="0.4"/>
  <circle cx="80" cy="65" r="8" fill="#f4c2c2" opacity="0.4"/>
  
  <!-- Glasses -->
  <ellipse cx="45" cy="50" rx="15" ry="12" fill="none" stroke="#333" stroke-width="2"/>
  <ellipse cx="75" cy="50" rx="15" ry="12" fill="none" stroke="#333" stroke-width="2"/>
  <line x1="60" y1="45" x2="60" y2="55" stroke="#333" stroke-width="2"/>
  <line x1="30" y1="50" x2="25" y2="55" stroke="#333" stroke-width="2"/>
  <line x1="90" y1="50" x2="95" y2="55" stroke="#333" stroke-width="2"/>
  
  <!-- Glasses reflection -->
  <ellipse cx="45" cy="50" rx="12" ry="9" fill="white" opacity="0.2"/>
  <ellipse cx="75" cy="50" rx="12" ry="9" fill="white" opacity="0.2"/>
</svg>
