<svg width="120" height="120" viewBox="0 0 120 120" xmlns="http://www.w3.org/2000/svg">
  <defs>
    <linearGradient id="face1" x1="0%" y1="0%" x2="100%" y2="100%">
      <stop offset="0%" style="stop-color:#f4c2c2;stop-opacity:1" />
      <stop offset="100%" style="stop-color:#e8b8b8;stop-opacity:1" />
    </linearGradient>
  </defs>
  
  <!-- Face -->
  <circle cx="60" cy="60" r="50" fill="url(#face1)"/>
  
  <!-- Hair -->
  <path d="M 20 45 Q 30 20 60 25 Q 90 20 100 45 Q 95 35 85 35 Q 75 30 60 35 Q 45 30 35 35 Q 25 35 20 45" fill="#8B4513"/>
  
  <!-- Eyes -->
  <ellipse cx="45" cy="50" rx="8" ry="6" fill="white"/>
  <ellipse cx="75" cy="50" rx="8" ry="6" fill="white"/>
  <circle cx="45" cy="50" r="4" fill="#333"/>
  <circle cx="75" cy="50" r="4" fill="#333"/>
  <circle cx="46" cy="49" r="1.5" fill="white"/>
  <circle cx="76" cy="49" r="1.5" fill="white"/>
  
  <!-- Eyebrows -->
  <path d="M 37 42 Q 45 40 53 42" stroke="#8B4513" stroke-width="2" fill="none"/>
  <path d="M 67 42 Q 75 40 83 42" stroke="#8B4513" stroke-width="2" fill="none"/>
  
  <!-- Nose -->
  <ellipse cx="60" cy="60" rx="3" ry="5" fill="#e8b8b8"/>
  
  <!-- Mouth -->
  <path d="M 52 72 Q 60 78 68 72" stroke="#333" stroke-width="2" fill="none"/>
  
  <!-- Cheeks -->
  <circle cx="40" cy="65" r="8" fill="#f4c2c2" opacity="0.6"/>
  <circle cx="80" cy="65" r="8" fill="#f4c2c2" opacity="0.6"/>
</svg>
