<svg width="120" height="120" viewBox="0 0 120 120" xmlns="http://www.w3.org/2000/svg">
  <defs>
    <linearGradient id="face3" x1="0%" y1="0%" x2="100%" y2="100%">
      <stop offset="0%" style="stop-color:#d4a574;stop-opacity:1" />
      <stop offset="100%" style="stop-color:#c19660;stop-opacity:1" />
    </linearGradient>
  </defs>
  
  <!-- Face -->
  <circle cx="60" cy="60" r="50" fill="url(#face3)"/>
  
  <!-- Hair -->
  <path d="M 25 40 Q 35 10 60 15 Q 85 10 95 40 Q 90 20 80 25 Q 70 20 60 25 Q 50 20 40 25 Q 30 20 25 40" fill="#2F4F4F"/>
  
  <!-- Beard -->
  <path d="M 35 75 Q 60 90 85 75 Q 80 85 70 88 Q 60 90 50 88 Q 40 85 35 75" fill="#2F4F4F"/>
  
  <!-- Eyes -->
  <ellipse cx="45" cy="50" rx="8" ry="6" fill="white"/>
  <ellipse cx="75" cy="50" rx="8" ry="6" fill="white"/>
  <circle cx="45" cy="50" r="4" fill="#006400"/>
  <circle cx="75" cy="50" r="4" fill="#006400"/>
  <circle cx="46" cy="49" r="1.5" fill="white"/>
  <circle cx="76" cy="49" r="1.5" fill="white"/>
  
  <!-- Eyebrows -->
  <path d="M 37 42 Q 45 40 53 42" stroke="#2F4F4F" stroke-width="3" fill="none"/>
  <path d="M 67 42 Q 75 40 83 42" stroke="#2F4F4F" stroke-width="3" fill="none"/>
  
  <!-- Nose -->
  <ellipse cx="60" cy="60" rx="4" ry="6" fill="#c19660"/>
  
  <!-- Mouth -->
  <path d="M 52 72 Q 60 78 68 72" stroke="#333" stroke-width="2" fill="none"/>
  
  <!-- Mustache -->
  <path d="M 48 68 Q 60 65 72 68" stroke="#2F4F4F" stroke-width="3" fill="none"/>
</svg>
