<svg width="1200" height="600" viewBox="0 0 1200 600" xmlns="http://www.w3.org/2000/svg">
  <defs>
    <linearGradient id="sky" x1="0%" y1="0%" x2="100%" y2="100%">
      <stop offset="0%" style="stop-color:#e6e6fa;stop-opacity:1" />
      <stop offset="100%" style="stop-color:#fff3b7;stop-opacity:1" />
    </linearGradient>
    <linearGradient id="grass" x1="0%" y1="0%" x2="100%" y2="100%">
      <stop offset="0%" style="stop-color:#a8c69f;stop-opacity:1" />
      <stop offset="100%" style="stop-color:#8fb987;stop-opacity:1" />
    </linearGradient>
  </defs>
  
  <!-- Sky Background -->
  <rect width="1200" height="400" fill="url(#sky)"/>
  
  <!-- Ground -->
  <rect x="0" y="400" width="1200" height="200" fill="url(#grass)"/>
  
  <!-- Mountains -->
  <polygon points="0,350 200,200 400,350" fill="#d4a574" opacity="0.4"/>
  <polygon points="300,350 500,150 700,350" fill="#d4a574" opacity="0.3"/>
  <polygon points="600,350 800,250 1000,350" fill="#d4a574" opacity="0.4"/>
  <polygon points="900,350 1100,200 1200,350" fill="#d4a574" opacity="0.3"/>
  
  <!-- Trees -->
  <rect x="150" y="320" width="20" height="80" fill="#8B4513"/>
  <circle cx="160" cy="320" r="40" fill="#a8c69f"/>
  <circle cx="160" cy="310" r="30" fill="#8fb987"/>
  
  <rect x="250" y="340" width="15" height="60" fill="#8B4513"/>
  <circle cx="257" cy="340" r="30" fill="#a8c69f"/>
  
  <rect x="350" y="330" width="18" height="70" fill="#8B4513"/>
  <circle cx="359" cy="330" r="35" fill="#a8c69f"/>
  <circle cx="359" cy="320" r="25" fill="#8fb987"/>
  
  <!-- Flowers -->
  <circle cx="100" cy="480" r="8" fill="#f4c2c2"/>
  <circle cx="120" cy="485" r="6" fill="#fff3b7"/>
  <circle cx="140" cy="478" r="7" fill="#e6e6fa"/>
  
  <circle cx="300" cy="470" r="9" fill="#f4c2c2"/>
  <circle cx="320" cy="475" r="7" fill="#fff3b7"/>
  
  <circle cx="500" cy="485" r="8" fill="#e6e6fa"/>
  <circle cx="520" cy="480" r="6" fill="#f4c2c2"/>
  <circle cx="540" cy="488" r="7" fill="#fff3b7"/>
  
  <!-- Clouds -->
  <ellipse cx="200" cy="100" rx="60" ry="30" fill="white" opacity="0.7"/>
  <ellipse cx="180" cy="90" rx="40" ry="20" fill="white" opacity="0.7"/>
  <ellipse cx="220" cy="85" rx="35" ry="25" fill="white" opacity="0.7"/>
  
  <ellipse cx="600" cy="120" rx="70" ry="35" fill="white" opacity="0.6"/>
  <ellipse cx="580" cy="110" rx="45" ry="25" fill="white" opacity="0.6"/>
  <ellipse cx="620" cy="105" rx="40" ry="20" fill="white" opacity="0.6"/>
  
  <ellipse cx="1000" cy="80" rx="55" ry="25" fill="white" opacity="0.7"/>
  <ellipse cx="980" cy="75" rx="35" ry="20" fill="white" opacity="0.7"/>
  
  <!-- Butterflies -->
  <circle cx="400" cy="200" r="3" fill="#f4c2c2"/>
  <circle cx="405" cy="195" r="4" fill="#f4c2c2"/>
  <circle cx="410" cy="200" r="3" fill="#f4c2c2"/>
  <circle cx="405" cy="205" r="4" fill="#f4c2c2"/>
  
  <circle cx="800" cy="180" r="2" fill="#e6e6fa"/>
  <circle cx="804" cy="177" r="3" fill="#e6e6fa"/>
  <circle cx="808" cy="180" r="2" fill="#e6e6fa"/>
  <circle cx="804" cy="183" r="3" fill="#e6e6fa"/>
  
  <!-- Sun rays -->
  <circle cx="1100" cy="100" r="100" fill="white" opacity="0.1"/>
  <circle cx="1100" cy="100" r="70" fill="white" opacity="0.1"/>
  <circle cx="1100" cy="100" r="40" fill="white" opacity="0.1"/>
  
  <!-- Peaceful path -->
  <ellipse cx="600" cy="500" rx="200" ry="20" fill="#d4a574" opacity="0.3"/>
  <ellipse cx="600" cy="520" rx="150" ry="15" fill="#d4a574" opacity="0.2"/>
</svg>
