<svg width="120" height="120" viewBox="0 0 120 120" xmlns="http://www.w3.org/2000/svg">
  <defs>
    <linearGradient id="face2" x1="0%" y1="0%" x2="100%" y2="100%">
      <stop offset="0%" style="stop-color:#f7e7ce;stop-opacity:1" />
      <stop offset="100%" style="stop-color:#e8d5b7;stop-opacity:1" />
    </linearGradient>
  </defs>
  
  <!-- Face -->
  <circle cx="60" cy="60" r="50" fill="url(#face2)"/>
  
  <!-- Hair -->
  <path d="M 15 50 Q 25 15 60 20 Q 95 15 105 50 Q 100 25 90 30 Q 80 25 70 30 Q 60 25 50 30 Q 40 25 30 30 Q 20 25 15 50" fill="#4B0082"/>
  
  <!-- Eyes -->
  <ellipse cx="45" cy="50" rx="8" ry="6" fill="white"/>
  <ellipse cx="75" cy="50" rx="8" ry="6" fill="white"/>
  <circle cx="45" cy="50" r="4" fill="#654321"/>
  <circle cx="75" cy="50" r="4" fill="#654321"/>
  <circle cx="46" cy="49" r="1.5" fill="white"/>
  <circle cx="76" cy="49" r="1.5" fill="white"/>
  
  <!-- Eyebrows -->
  <path d="M 37 42 Q 45 40 53 42" stroke="#4B0082" stroke-width="2" fill="none"/>
  <path d="M 67 42 Q 75 40 83 42" stroke="#4B0082" stroke-width="2" fill="none"/>
  
  <!-- Nose -->
  <ellipse cx="60" cy="60" rx="3" ry="5" fill="#e8d5b7"/>
  
  <!-- Mouth -->
  <path d="M 52 72 Q 60 78 68 72" stroke="#333" stroke-width="2" fill="none"/>
  
  <!-- Cheeks -->
  <circle cx="40" cy="65" r="8" fill="#f4c2c2" opacity="0.5"/>
  <circle cx="80" cy="65" r="8" fill="#f4c2c2" opacity="0.5"/>
  
  <!-- Earrings -->
  <circle cx="30" cy="55" r="3" fill="#FFD700"/>
  <circle cx="90" cy="55" r="3" fill="#FFD700"/>
</svg>
